<svg width="486" height="58" viewBox="0 0 486 58" fill="none" xmlns="http://www.w3.org/2000/svg">
<path d="M2.31641 16.9863C2.31641 13.6383 3.11882 10.7192 4.72363 8.229C6.35612 5.73877 8.63883 3.81576 11.5718 2.45996C14.5324 1.10417 17.9357 0.42627 21.7817 0.42627C25.5724 0.42627 28.9481 1.09033 31.9087 2.41846C34.8693 3.74658 37.1797 5.62809 38.8398 8.06299C40.5 10.4979 41.3301 13.334 41.3301 16.5713H31.0786C31.0233 14.2471 30.0964 12.3794 28.2979 10.9683C26.527 9.52946 24.189 8.81006 21.2837 8.81006C18.6274 8.81006 16.4969 9.47412 14.8921 10.8022C13.3149 12.1027 12.5264 13.7905 12.5264 15.8657C12.5264 17.9132 13.2181 19.4212 14.6016 20.3896C16.0127 21.3581 17.8804 22.119 20.2046 22.6724L29.1279 24.8721C33.1953 25.8405 36.488 27.6252 39.0059 30.2261C41.5238 32.7993 42.7827 36.1196 42.7827 40.187C42.7827 43.5903 41.925 46.5648 40.2095 49.1104C38.5216 51.6559 36.1144 53.6343 32.9878 55.0454C29.8888 56.4289 26.278 57.1206 22.1553 57.1206C16.0404 57.1206 11.0599 55.6403 7.21387 52.6797C3.39551 49.6914 1.32031 45.6379 0.988281 40.519H11.2397C11.3504 43.0646 12.4157 45.0706 14.4355 46.5371C16.4554 47.9759 19.084 48.6953 22.3213 48.6953C25.4479 48.6953 27.8966 48.0312 29.6675 46.7031C31.4383 45.375 32.3237 43.5488 32.3237 41.2246C32.3237 39.2324 31.7012 37.7244 30.4561 36.7007C29.2109 35.6769 27.5785 34.916 25.5586 34.418L16.4277 32.2183C11.9453 31.1392 8.47282 29.3407 6.01025 26.8228C3.54769 24.2772 2.31641 20.9984 2.31641 16.9863ZM112.451 1.50537C118.179 1.50537 122.675 3.12402 125.94 6.36133C129.233 9.59863 130.879 13.9289 130.879 19.3521C130.879 22.866 130.132 25.9788 128.638 28.6904C127.144 31.3743 124.985 33.4772 122.163 34.999C119.368 36.5208 116.076 37.2817 112.285 37.2817H100.042V56H90.0806V1.50537H112.451ZM110.417 28.7319C113.765 28.7319 116.27 27.8327 117.93 26.0342C119.618 24.208 120.461 21.9253 120.461 19.186C120.461 16.6958 119.618 14.5929 117.93 12.8774C116.27 11.1343 113.848 10.2627 110.667 10.2627H100.042V28.7319H110.417ZM188.138 1.50537H198.265L218.477 56H207.935L203.536 43.5903H182.701L178.094 56H167.801L188.138 1.50537ZM200.63 35.3311L197.144 25.7437C196.812 24.8306 195.899 22.1328 194.405 17.6504L193.243 14.2471C193.021 14.9941 192.496 16.5575 191.666 18.937C190.835 21.3166 189.992 23.5854 189.134 25.7437L185.564 35.3311H200.63ZM286.153 57.1206C280.702 57.1206 275.847 55.9447 271.585 53.5928C267.352 51.2409 264.046 47.9067 261.666 43.5903C259.286 39.2739 258.097 34.3211 258.097 28.7319C258.097 23.1704 259.273 18.2453 261.625 13.9565C263.976 9.64014 267.269 6.30599 271.502 3.9541C275.764 1.60221 280.647 0.42627 286.153 0.42627C290.691 0.42627 294.841 1.20101 298.604 2.75049C302.368 4.29997 305.48 6.54118 307.943 9.47412C310.405 12.3794 311.983 15.755 312.674 19.6011H301.593C300.735 16.6681 298.909 14.2747 296.114 12.4209C293.32 10.5394 289.972 9.59863 286.07 9.59863C282.556 9.59863 279.457 10.3872 276.773 11.9644C274.117 13.5415 272.07 15.7965 270.631 18.7295C269.192 21.6348 268.473 24.9966 268.473 28.8149C268.473 32.661 269.206 36.0366 270.672 38.9419C272.139 41.8195 274.2 44.0192 276.856 45.541C279.54 47.0628 282.612 47.8237 286.07 47.8237C289.861 47.8237 293.167 46.9106 295.99 45.0845C298.84 43.2306 300.707 40.7819 301.593 37.7383H312.674C312.038 41.529 310.502 44.9046 308.067 47.8652C305.632 50.7982 302.534 53.0809 298.771 54.7134C295.007 56.3182 290.802 57.1206 286.153 57.1206ZM369.933 10.5947V24.208H392.304V32.8823H369.933V46.9106H394.835V56H359.972V1.50537H394.835V10.5947H369.933ZM443.627 1.50537H465.251C471.892 1.50537 476.927 2.98568 480.358 5.94629C483.817 8.87923 485.546 13.0711 485.546 18.522C485.546 22.3127 484.661 25.55 482.89 28.2339C481.147 30.8901 478.684 32.8132 475.502 34.0029L485.878 56H474.755L465.583 35.7046H453.588V56H443.627V1.50537ZM465.251 27.0303C468.488 27.0303 470.937 26.2555 472.597 24.7061C474.257 23.1289 475.087 21.0952 475.087 18.605C475.087 16.1147 474.243 14.1087 472.556 12.5869C470.896 11.0374 468.461 10.2627 465.251 10.2627H453.588V27.0303H465.251Z" fill="#EDEDED"/>
</svg>
